<svg xmlns="http://www.w3.org/2000/svg" fill="none" viewBox="0 0 1701 296">
  <path fill="#000" d="M1396.71 86.543h46.89l43.58 130.31 42.33-130.31h37.76l42.33 130.31 43.58-130.31h47.31l-70.14 209.16h-38.59l-43.16-132.385-43.16 132.385h-39.01l-69.72-209.16ZM1163.19 184.898c0-62.665 50.63-110.805 114.12-110.805 63.08 0 114.13 48.14 114.13 110.805 0 62.665-51.05 110.805-114.13 110.805-63.49 0-114.12-48.14-114.12-110.805Zm49.38 0c0 36.935 27.81 65.57 64.74 65.57 36.52 0 64.74-28.635 64.74-65.57 0-36.935-28.22-65.57-64.74-65.57-36.93 0-64.74 28.635-64.74 65.57ZM1055.67.638h49.8v220.78c0 20.335 6.64 29.05 24.9 29.05 4.57 0 10.38-.415 14.94-1.66v44.405c-5.81 1.66-14.94 2.49-23.65 2.49-26.98 0-65.99-7.47-65.99-67.645V.638ZM931.512 131.778h-34.03V86.543h34.03V76.168c0-32.785 7.47-49.385 22.825-61.835C970.107 1.468 990.027.638 1006.21.638c7.47 0 17.02.83 21.58 1.66v42.745c-5.81-2.075-12.86-2.075-19.09-2.075-18.673 0-27.388 7.885-27.388 29.465v14.11h39.428v45.235h-39.428v163.925h-49.8V131.778ZM648.78 184.898c0-62.665 50.63-110.805 114.125-110.805 63.08 0 114.125 48.14 114.125 110.805 0 62.665-51.045 110.805-114.125 110.805-63.495 0-114.125-48.14-114.125-110.805Zm49.385 0c0 36.935 27.805 65.57 64.74 65.57 36.52 0 64.74-28.635 64.74-65.57 0-36.935-28.22-65.57-64.74-65.57-36.935 0-64.74 28.635-64.74 65.57ZM507.246 86.543h49.385v31.125c9.96-21.58 32.37-35.275 62.25-35.275 5.395 0 12.865.83 14.94 1.245v48.14c-5.81-1.245-12.865-2.075-20.75-2.075-34.445 0-56.44 21.58-56.44 56.025v109.975h-49.385V86.543ZM241.675 184.898c0-62.665 50.63-110.805 114.125-110.805 63.08 0 114.125 48.14 114.125 110.805 0 62.665-51.045 110.805-114.125 110.805-63.495 0-114.125-48.14-114.125-110.805Zm49.385 0c0 36.935 27.805 65.57 64.74 65.57 36.52 0 64.74-28.635 64.74-65.57 0-36.935-28.22-65.57-64.74-65.57-36.935 0-64.74 28.635-64.74 65.57ZM.677 6.448h51.875v138.61L174.977 6.448h61.42L123.932 133.853l115.785 161.85h-60.59L89.072 170.788l-36.52 40.255v84.66H.677V6.448Z"/>
</svg>
