<svg xmlns="http://www.w3.org/2000/svg" fill="none" viewBox="0 0 269 306">
  <path fill="#000" fill-rule="evenodd" d="M59.264 76.876 22.916 44.555 6.45 63.072C-1.706 72.243-.882 86.29 8.29 94.445l47.754 42.466 3.22-60.035ZM116.17 190.38l86.28 76.724c19.398 17.25 49.107 15.508 66.357-3.89L119.39 130.344l-3.219 60.035Z" clip-rule="evenodd"/>
  <path fill="#000" d="M136.141 119.752c-9.178-9.177-9.178-24.057 0-33.235L221.84.817l16.618 16.618c9.177 9.178 9.177 24.058 0 33.236l-85.7 85.699-16.617-16.618ZM106.76 6.178c6.128.328 10.829 5.562 10.5 11.69l-14.831 276.56c-.328 6.128-5.562 10.829-11.69 10.5l-24.744-1.327c-6.128-.328-10.829-5.562-10.5-11.69l14.831-276.56c.329-6.128 5.563-10.829 11.69-10.5l24.744 1.327Z"/>
</svg>
